<svg xmlns="http://www.w3.org/2000/svg" width="94.943" height="94.164" version="1" viewBox="0 0 94.943 94.164">
    <path fill="#ED1C24" fill-rule="evenodd" d="M90.284 28.39a47.213 47.213 0 0 0-8.509-13.097 303.51 303.51 0 0 1-1.975 3.778 43.133 43.133 0 0 1 6.422 10.013c1.34-.241 2.695-.466 4.062-.694zM90.009 43.564c.094 1.161.155 2.332.155 3.518 0 23.793-19.289 43.082-43.082 43.082a43.3 43.3 0 0 1-2.342-.066c.134.57.229 1.177.219 1.841a6.576 6.576 0 0 1-.404 2.155c.837.045 1.679.07 2.527.07 25.961 0 47.082-21.121 47.082-47.082 0-2.089-.151-4.142-.416-6.159a38.465 38.465 0 0 1-3.739 2.641zM4 47.082C4 23.288 23.288 4 47.082 4A42.872 42.872 0 0 1 68.65 9.793a341.261 341.261 0 0 1 3.361-2.624A46.787 46.787 0 0 0 47.082 0C21.121 0 0 21.121 0 47.082c0 19.807 12.3 36.783 29.657 43.725-.4-1.499-.562-3.067-.569-4.582C14.283 79.407 4 64.45 4 47.082z" clip-rule="evenodd"/>
    <path fill="#ED1C24" fill-rule="evenodd" d="M38.77 84.906c7.738-2.721 16.312-9.662 14.539-19.826-.897-5.145-4.48-5-7.269-9.252C60.477 43.831 70.252 27.172 79.083 9.567H77.1c-7.446 5.661-21.91 16.983-28.417 26.435-2.603 3.78-4.593 9.313-7.27 13.878-4.542 7.745-15.125 21.23-6.609 31.061-1.379 4.619-1.204 12.389 3.965 12.557 3.27-1.727-1.384-4.603.001-8.592zm8.312-38.825a2.584 2.584 0 1 1 0 5.168 2.584 2.584 0 0 1 0-5.168zM36.787 74.994c-1.857-9.003 7.01-16.95 11.896-9.252.26 7.418-6.181 15.768-11.896 9.252z" clip-rule="evenodd"/>
    <path fill="#ED1C24" fill-rule="evenodd" d="M55.953 51.203C69.916 46 86.53 43.45 94.943 32.698c-9.414 1.379-18.119 3.469-27.756 4.626-2.134 6.236-7.031 9.711-11.234 13.879zM12.335 39.968c-4.223 12.248 8.425 15.99 21.809 13.878 3.784-4.814 5.85-9.964 1.983-15.861-4.894-7.461-20.911-6.373-23.792 1.983zm5.287 7.269c-5.123-10.84 12.89-11.066 14.539-5.287 2.178 7.632-9.098 8.032-14.539 5.287z" clip-rule="evenodd"/>
</svg>
